<svg width="58" height="67" viewBox="0 0 58 67" fill="none" xmlns="http://www.w3.org/2000/svg">
<path fill-rule="evenodd" clip-rule="evenodd" d="M52.667 28.4589L46.3161 28.3771C47.7592 21.4846 47.9528 18.0293 43.9138 14.78C46.1666 20.194 46.4215 23.1783 43.7758 28.3445L37.425 28.2627C42.3642 25.1643 43.1693 22.5768 42.6198 17.1023C41.1468 25.0523 38.0535 27.6839 27.2636 28.132L27.335 21.1159C34.6288 22.8545 36.9226 21.6945 39.6466 17.9997C34.8288 20.924 32.1376 21.2305 27.3635 18.3094L27.4349 11.2933C27.5029 11.387 27.5703 11.4799 27.6371 11.572C30.7459 15.8593 32.5502 18.3476 37.5391 17.0369C29.2461 14.0972 27.3172 10.1649 27.5491 0.0675048L33.8999 0.14922C32.0014 6.96419 31.1386 10.6842 36.7257 13.7519C33.8484 9.50582 33.6923 6.5706 36.4403 0.181906L42.7911 0.263621C42.2895 0.785708 41.8021 1.25833 41.3391 1.70734C38.7694 4.19934 36.9495 5.96428 37.5962 11.424C40.1913 3.53128 43.2316 0.777026 52.9525 0.394366L52.8811 7.41049C47.6668 5.86884 44.8731 5.82335 40.5742 10.059C45.2546 7.7191 47.884 6.51683 52.8525 10.2169L52.7859 16.7653C49.8286 12.8606 47.6833 11.7616 43.1003 11.4949C50.8946 14.6897 53.1944 18.2306 52.667 28.4589ZM39.2613 14.2523C39.4268 15.0025 39.6478 15.1209 40.0985 15.1987C40.8136 15.071 40.945 14.8342 40.9548 14.2741C40.977 13.6657 40.7103 13.5155 40.1175 13.3277C39.5221 13.3666 39.3847 13.6201 39.2613 14.2523Z" fill="#00BC4F"/>
<path d="M18.5054 0H25.8837V21.2029C25.8837 23.6533 25.341 25.788 24.2557 27.6071C23.1703 29.4154 21.6569 30.8172 19.7152 31.8123C17.7736 32.7968 15.5183 33.289 12.9493 33.289C10.3505 33.289 8.08025 32.7968 6.1386 31.8123C4.19695 30.8172 2.68844 29.4154 1.61306 27.6071C0.537687 25.788 0 23.6533 0 21.2029V0H7.3932V20.5127C7.3932 21.6469 7.62222 22.6581 8.08025 23.5463C8.54823 24.4344 9.20043 25.1299 10.0368 25.6328C10.8732 26.1358 11.8441 26.3872 12.9493 26.3872C14.0546 26.3872 15.0204 26.1358 15.8468 25.6328C16.6832 25.1299 17.3354 24.4344 17.8034 23.5463C18.2714 22.6581 18.5054 21.6469 18.5054 20.5127V0Z" fill="#00BC4F"/>
<path d="M1.9715 63.9456V31.074H14.6072C16.8973 31.074 18.8738 31.518 20.5366 32.4062C22.2095 33.2836 23.4989 34.5463 24.405 36.1941C25.3111 37.8313 25.7642 39.7734 25.7642 42.0205C25.7642 44.2997 25.3012 46.2365 24.3751 47.8308C23.4491 49.4145 22.1348 50.6236 20.4321 51.4583C18.7294 52.2822 16.7131 52.6941 14.3831 52.6941H6.39248V46.4344H13.009C14.1242 46.4344 15.0552 46.2793 15.802 45.9689C16.5588 45.6479 17.1313 45.1664 17.5196 44.5244C17.908 43.8717 18.1021 43.037 18.1021 42.0205C18.1021 41.004 17.908 40.164 17.5196 39.5005C17.1313 38.8264 16.5588 38.3235 15.802 37.9918C15.0453 37.6494 14.1143 37.4782 13.009 37.4782H9.3647V63.9456H1.9715ZM19.1924 48.9223L26.8097 63.9456H18.7444L11.2765 48.9223H19.1924Z" fill="#00BC4F"/>
<path d="M27.6012 63.9456V31.074H40.2368C42.527 31.074 44.5035 31.5555 46.1663 32.5185C47.8392 33.4709 49.1286 34.8031 50.0347 36.5151C50.9408 38.2165 51.3939 40.1961 51.3939 42.4539C51.3939 44.7223 50.9309 46.7073 50.0048 48.4086C49.0888 50.0993 47.7794 51.4101 46.0767 52.341C44.3741 53.272 42.3527 53.7374 40.0128 53.7374H32.2163V47.4777H38.6387C39.7539 47.4777 40.6849 47.269 41.4317 46.8517C42.1885 46.4344 42.761 45.8512 43.1493 45.1022C43.5377 44.3425 43.7318 43.4597 43.7318 42.4539C43.7318 41.4373 43.5377 40.5599 43.1493 39.8216C42.761 39.0725 42.1885 38.4947 41.4317 38.0881C40.675 37.6815 39.744 37.4782 38.6387 37.4782H34.9944V63.9456H27.6012Z" fill="#00BC4F"/>
<path d="M51.1629 57L52.2405 59.8852H52.3136L54.3226 57H57.2632L53.7017 61.9572L55.8203 66.9143H52.9894L51.857 63.971H51.7839L49.7383 66.9143H46.7795L50.4323 61.9572L48.4233 57H51.1629Z" fill="#00BC4F"/>
<path d="M39 66.9143L40.5525 57H47.292L46.945 59.1688H42.7442L42.4885 60.8728H46.3423L45.9952 63.0416H42.1415L41.8858 64.7456H46.0683L45.7213 66.9143H39Z" fill="#00BC4F"/>
</svg>
