<svg width="351" height="103" viewBox="0 0 351 103" fill="none" xmlns="http://www.w3.org/2000/svg">
<path fill-rule="evenodd" clip-rule="evenodd" d="M89.041 94.6466L66.7859 94.3771C71.8455 71.3965 72.5252 59.8762 58.3726 49.0446C66.2651 67.0942 67.157 77.0439 57.8838 94.2693L35.6287 93.9998C52.9385 83.6672 55.7606 75.04 53.8373 56.7881C48.6723 83.2944 37.8316 92.0696 0.0205101 93.5685L0.27331 70.1765C25.8323 75.9696 33.8709 72.1011 43.4179 59.7812C26.5337 69.5333 17.103 70.5564 0.37443 60.8196L0.62723 37.4275C0.865564 37.74 1.10162 38.0498 1.33558 38.3567C12.2281 52.6493 18.5501 60.9446 36.0332 56.5724C6.97322 46.775 0.215341 33.6654 1.03171 0.000224889L23.2868 0.269744C16.6314 22.992 13.6062 35.3951 33.1838 45.6202C23.1027 31.4651 22.5567 21.679 32.1889 0.377551L54.444 0.64707C52.6859 2.38796 50.9779 3.96391 49.3553 5.46115C40.3495 13.7708 33.9712 19.656 36.2354 37.8588C45.3323 11.5428 55.9876 2.35858 90.0522 1.0783L89.7994 24.4704C71.5277 19.3329 61.7378 19.1825 46.6717 33.3061C63.0741 25.5028 72.2885 21.4932 89.6983 33.8272L89.4623 55.6598C79.1006 42.6427 71.5832 38.9797 55.5232 38.0924C82.8353 48.7406 90.8933 60.5448 89.041 94.6466ZM42.069 47.2875C42.6488 49.7887 43.4232 50.1832 45.0027 50.4424C47.5084 50.0162 47.9693 49.2269 48.0037 47.3593C48.0816 45.3311 47.1473 44.8303 45.0701 44.2045C42.9834 44.3343 42.5019 45.1797 42.069 47.2875Z" fill="#0AE98A"/>
<path d="M154.906 0H177.771V61.8434C177.771 68.9906 176.089 75.2171 172.726 80.5229C169.362 85.7974 164.672 89.886 158.655 92.7886C152.638 95.6599 145.649 97.0956 137.688 97.0956C129.634 97.0956 122.599 95.6599 116.582 92.7886C110.565 89.886 105.89 85.7974 102.558 80.5229C99.2253 75.2171 97.5591 68.9906 97.5591 61.8434V0H120.47V59.8304C120.47 63.1387 121.18 66.0881 122.599 68.6785C124.049 71.269 126.071 73.2977 128.663 74.7645C131.254 76.2314 134.263 76.9649 137.688 76.9649C141.113 76.9649 144.106 76.2314 146.667 74.7645C149.259 73.2977 151.28 71.269 152.731 68.6785C154.181 66.0881 154.906 63.1387 154.906 59.8304V0Z" fill="#0AE98A"/>
<path d="M186.64 95.8784V0H225.797C232.894 0 239.019 1.29523 244.172 3.8857C249.356 6.44495 253.352 10.1278 256.16 14.9342C258.968 19.7094 260.372 25.3741 260.372 31.9282C260.372 38.5761 258.937 44.2251 256.067 48.8755C253.198 53.4946 249.124 57.0214 243.848 59.4558C238.572 61.859 232.323 63.0606 225.103 63.0606H200.34V44.8025H220.844C224.3 44.8025 227.185 44.35 229.5 43.4449C231.845 42.5086 233.619 41.1041 234.822 39.2315C236.026 37.3277 236.628 34.8932 236.628 31.9282C236.628 28.9633 236.026 26.5132 234.822 24.5782C233.619 22.6119 231.845 21.1451 229.5 20.1775C227.155 19.1788 224.269 18.6794 220.844 18.6794H209.551V95.8784H186.64ZM240.006 52.059L263.612 95.8784H238.618L215.475 52.059H240.006Z" fill="#0AE98A"/>
<path d="M264.586 95.8784V0H303.743C310.84 0 316.965 1.40447 322.118 4.21341C327.302 6.99113 331.298 10.8768 334.106 15.8705C336.914 20.833 338.318 26.6069 338.318 33.1923C338.318 39.8089 336.883 45.5984 334.013 50.5609C331.174 55.4921 327.117 59.3154 321.84 62.0307C316.564 64.746 310.3 66.1037 303.049 66.1037H278.888V47.8456H298.79C302.246 47.8456 305.131 47.237 307.446 46.0198C309.791 44.8025 311.565 43.1016 312.768 40.9168C313.972 38.7009 314.573 36.1261 314.573 33.1923C314.573 30.2273 313.972 27.668 312.768 25.5145C311.565 23.3298 309.791 21.6444 307.446 20.4584C305.1 19.2724 302.215 18.6794 298.79 18.6794H287.497V95.8784H264.586Z" fill="#0AE98A"/>
<path d="M335.079 78.7051L337.879 85.7753H338.069L343.288 78.7051H350.928L341.675 90.8526L347.179 103H339.824L336.882 95.7874H336.692L331.378 103H323.691L333.181 90.8526L327.961 78.7051H335.079Z" fill="#0AE98A"/>
<path d="M303.48 103L307.513 78.7051H325.022L324.121 84.0196H313.207L312.543 88.1953H322.555L321.653 93.5098H311.641L310.977 97.6855H321.843L320.942 103H303.48Z" fill="#0AE98A"/>
</svg>
