<svg width="129" height="35" viewBox="0 0 129 35" fill="none" xmlns="http://www.w3.org/2000/svg">
<path fill-rule="evenodd" clip-rule="evenodd" d="M0.865865 0.49762L8.04192 0.49762C6.5118 8.30541 6.34331 12.2119 10.9536 15.8241C8.32977 9.74037 7.99848 6.37253 10.9123 0.49762L18.0884 0.49762C12.5533 4.06988 11.6814 7.00481 12.3817 13.1816C13.9303 4.17867 17.3867 1.16069 29.5701 0.49762L29.5914 8.42512C21.326 6.56697 18.7514 7.91082 15.7277 12.1246C21.1281 8.75082 24.164 8.36545 29.6 11.5961L29.6213 19.5236C29.5431 19.4187 29.4657 19.3147 29.3889 19.2117C25.8144 14.4133 23.7397 11.6283 18.1226 13.1816C27.5343 16.3823 29.7707 20.7967 29.6555 32.2076H22.4795C24.5252 24.4808 25.446 20.2656 19.0893 16.8811C22.4017 21.6362 22.6207 24.95 19.609 32.2076H12.433C12.9921 31.6105 13.5358 31.0695 14.0524 30.5555C16.9192 27.7028 18.9497 25.6824 18.1397 19.5236C15.3226 28.4782 11.9278 31.634 0.951315 32.2076L0.929953 24.2801C6.8432 25.946 10 25.9568 14.7951 21.1091C9.54143 23.8206 6.58841 25.2171 0.921408 21.1091L0.901469 13.7101C4.29924 18.0785 6.7389 19.2889 11.9204 19.5236C3.06839 16.0275 0.418671 12.0607 0.865865 0.49762ZM16.2175 16.3526C16.0196 15.5074 15.7682 15.3769 15.2578 15.2956C14.4519 15.4503 14.3068 15.7197 14.3039 16.3526C14.2877 17.0402 14.5911 17.2061 15.2635 17.4096C15.9357 17.357 16.0872 17.0686 16.2175 16.3526Z" fill="white"/>
<path d="M52.5054 1H59.8837V22.2029C59.8837 24.6533 59.341 26.788 58.2557 28.6071C57.1703 30.4154 55.6569 31.8172 53.7152 32.8123C51.7736 33.7968 49.5183 34.289 46.9493 34.289C44.3505 34.289 42.0802 33.7968 40.1386 32.8123C38.1969 31.8172 36.6884 30.4154 35.6131 28.6071C34.5377 26.788 34 24.6533 34 22.2029V1H41.3932V21.5127C41.3932 22.6469 41.6222 23.6581 42.0802 24.5463C42.5482 25.4344 43.2004 26.1299 44.0368 26.6328C44.8732 27.1358 45.8441 27.3872 46.9493 27.3872C48.0546 27.3872 49.0204 27.1358 49.8468 26.6328C50.6832 26.1299 51.3354 25.4344 51.8034 24.5463C52.2714 23.6581 52.5054 22.6469 52.5054 21.5127V1Z" fill="white"/>
<path d="M63 33.8716V0.999939H75.6357C77.9258 0.999939 79.9023 1.44401 81.5652 2.33214C83.238 3.20957 84.5274 4.47222 85.4335 6.12008C86.3396 7.75725 86.7927 9.69937 86.7927 11.9465C86.7927 14.2256 86.3297 16.1624 85.4036 17.7568C84.4776 19.3404 83.1633 20.5496 81.4606 21.3842C79.7579 22.2082 77.7416 22.6201 75.4116 22.6201H67.421V16.3604H74.0375C75.1527 16.3604 76.0837 16.2052 76.8305 15.8949C77.5873 15.5739 78.1598 15.0924 78.5481 14.4504C78.9365 13.7976 79.1306 12.963 79.1306 11.9465C79.1306 10.9299 78.9365 10.0899 78.5481 9.42651C78.1598 8.75239 77.5873 8.24947 76.8305 7.91775C76.0738 7.57534 75.1428 7.40413 74.0375 7.40413H70.3932V33.8716H63ZM80.2209 18.8482L87.8382 33.8716H79.7729L72.305 18.8482H80.2209Z" fill="white"/>
<path d="M91 33.8717V1H103.636C105.926 1 107.902 1.48152 109.565 2.44456C111.238 3.39689 112.527 4.72909 113.434 6.44116C114.34 8.14252 114.793 10.1221 114.793 12.3799C114.793 14.6484 114.33 16.6333 113.404 18.3347C112.488 20.0253 111.178 21.3361 109.476 22.2671C107.773 23.198 105.752 23.6635 103.412 23.6635H95.6152V17.4037H102.038C103.153 17.4037 104.084 17.1951 104.831 16.7778C105.587 16.3604 106.16 15.7773 106.548 15.0282C106.936 14.2685 107.131 13.3857 107.131 12.3799C107.131 11.3633 106.936 10.4859 106.548 9.74758C106.16 8.99856 105.587 8.42073 104.831 8.01412C104.074 7.6075 103.143 7.4042 102.038 7.4042H98.3932V33.8717H91Z" fill="white"/>
<path d="M122.163 24L123.241 26.8852H123.314L125.323 24H128.263L124.702 28.9572L126.82 33.9143H123.989L122.857 30.971H122.784L120.738 33.9143H117.78L121.432 28.9572L119.423 24H122.163Z" fill="white"/>
<path d="M110 33.9143L111.552 23.9999H118.292L117.945 26.1687H113.744L113.488 27.8727H117.342L116.995 30.0415H113.141L112.886 31.7455H117.068L116.721 33.9143H110Z" fill="white"/>
</svg>
