<svg width="79" height="23" viewBox="0 0 79 23" fill="none" xmlns="http://www.w3.org/2000/svg">
<path fill-rule="evenodd" clip-rule="evenodd" d="M19.8829 21.1347L14.9133 21.0745C16.0432 15.9429 16.1949 13.3704 13.0347 10.9517C14.7971 14.9822 14.9962 17.204 12.9255 21.0504L7.95592 20.9902C11.8212 18.683 12.4514 16.7565 12.0219 12.6808C10.8686 18.5997 8.44784 20.5592 0.00457483 20.8939L0.0610253 15.6705C5.76836 16.9641 7.56341 16.1003 9.69525 13.3492C5.925 15.5269 3.81911 15.7553 0.0836055 13.5811L0.140056 8.35761C0.193276 8.42738 0.245988 8.49655 0.298232 8.5651C2.73054 11.7566 4.14225 13.609 8.04624 12.6327C1.55712 10.4449 0.0480808 7.51753 0.230377 5.42702e-05L5.19997 0.0602381C3.71381 5.13415 3.03827 7.90376 7.40997 10.187C5.15885 7.02618 5.03693 4.84094 7.18781 0.0843116L12.1574 0.144495C11.7648 0.533238 11.3834 0.88515 11.0211 1.21948C9.01007 3.07503 7.5858 4.38921 8.0914 8.45391C10.1227 2.57752 12.5021 0.526677 20.1087 0.24079L20.0523 5.46426C15.9722 4.31705 13.7861 4.28347 10.4218 7.4373C14.0845 5.69481 16.1421 4.79945 20.0297 7.55365L19.977 12.4289C17.6632 9.52217 15.9846 8.70421 12.3984 8.50607C18.4972 10.8838 20.2966 13.5197 19.8829 21.1347ZM9.39405 10.5593C9.52351 11.1179 9.69643 11.206 10.0491 11.2638C10.6087 11.1687 10.7116 10.9924 10.7193 10.5754C10.7367 10.1225 10.528 10.0106 10.0642 9.87091C9.59823 9.8999 9.4907 10.0887 9.39405 10.5593Z" fill="#00BC4F"/>
<path d="M34.5906 5.72205e-06H39.6964V13.8097C39.6964 15.4057 39.3208 16.7961 38.5698 17.9808C37.8187 19.1587 36.7714 20.0716 35.4278 20.7198C34.0842 21.361 32.5235 21.6815 30.7459 21.6815C28.9475 21.6815 27.3765 21.361 26.0329 20.7198C24.6893 20.0716 23.6454 19.1587 22.9012 17.9808C22.1571 16.7961 21.785 15.4057 21.785 13.8097V5.72205e-06H26.9011V13.3602C26.9011 14.0989 27.0595 14.7575 27.3765 15.336C27.7003 15.9144 28.1517 16.3674 28.7304 16.695C29.3092 17.0226 29.981 17.1863 30.7459 17.1863C31.5107 17.1863 32.179 17.0226 32.7509 16.695C33.3297 16.3674 33.781 15.9144 34.1049 15.336C34.4287 14.7575 34.5906 14.0989 34.5906 13.3602V5.72205e-06Z" fill="#00BC4F"/>
<path d="M41.6769 21.4097V5.72205e-06H50.4207C52.0055 5.72205e-06 53.3732 0.289232 54.5239 0.867686C55.6815 1.43917 56.5737 2.26155 57.2008 3.33482C57.8278 4.40113 58.1413 5.66606 58.1413 7.12962C58.1413 8.61408 57.8209 9.87553 57.1801 10.914C56.5393 11.9454 55.6298 12.7329 54.4515 13.2766C53.2733 13.8132 51.878 14.0815 50.2657 14.0815H44.7362V10.0045H49.3148C50.0865 10.0045 50.7308 9.9034 51.2475 9.70129C51.7712 9.49221 52.1674 9.17859 52.4361 8.76044C52.7048 8.33531 52.8392 7.7917 52.8392 7.12962C52.8392 6.46753 52.7048 5.92044 52.4361 5.48834C52.1674 5.04928 51.7712 4.72172 51.2475 4.50567C50.7239 4.28265 50.0796 4.17114 49.3148 4.17114H46.793V21.4097H41.6769ZM53.5937 11.6248L58.8648 21.4097H53.2836L48.1159 11.6248H53.5937Z" fill="#00BC4F"/>
<path d="M59.0823 21.4097V5.72205e-06H67.8261C69.4109 5.72205e-06 70.7786 0.313625 71.9293 0.940864C73.0869 1.56113 73.9792 2.42881 74.6062 3.5439C75.2332 4.65202 75.5467 5.94135 75.5467 7.41187C75.5467 8.88937 75.2263 10.1822 74.5855 11.2903C73.9516 12.3914 73.0455 13.2452 71.8673 13.8515C70.689 14.4579 69.2903 14.761 67.6711 14.761H62.276V10.684H66.7202C67.4919 10.684 68.1362 10.5481 68.653 10.2763C69.1766 10.0045 69.5728 9.62463 69.8415 9.13678C70.1103 8.64196 70.2446 8.06699 70.2446 7.41187C70.2446 6.74979 70.1103 6.1783 69.8415 5.69742C69.5728 5.20957 69.1766 4.83323 68.653 4.56839C68.1293 4.30356 67.485 4.17114 66.7202 4.17114H64.1984V21.4097H59.0823Z" fill="#00BC4F"/>
<path d="M74.8235 17.5749L75.4487 19.1537H75.491L76.6566 17.5749H78.3625L76.2963 20.2875L77.5254 23H75.8831L75.2261 21.3894H75.1838L73.997 23H72.2805L74.3997 20.2875L73.2341 17.5749H74.8235Z" fill="#00BC4F"/>
<path d="M67.7673 23L68.668 17.5749H72.5779L72.3765 18.7617H69.9395L69.7912 19.6941H72.0269L71.8255 20.8808H69.5898L69.4415 21.8133H71.8679L71.6666 23H67.7673Z" fill="#00BC4F"/>
</svg>
